<svg width="80" height="80" viewBox="0 0 80 80" fill="none" xmlns="http://www.w3.org/2000/svg">
<path d="M59.1882 67.2161L51.3117 62.5497" stroke="#151515" stroke-width="2" stroke-miterlimit="10" stroke-linecap="round" stroke-linejoin="round"/>
<path d="M54.287 70.7524L48.4834 67.3142" stroke="#151515" stroke-width="2" stroke-miterlimit="10" stroke-linecap="round" stroke-linejoin="round"/>
<path d="M48.347 73.6736L46.0728 72.3264" stroke="#151515" stroke-width="2" stroke-miterlimit="10" stroke-linecap="round" stroke-linejoin="round"/>
<path d="M14.0224 22.7065H52.3385" stroke="#151515" stroke-width="2" stroke-miterlimit="10" stroke-linecap="round" stroke-linejoin="round"/>
<path d="M14.0224 14.542H33.1805" stroke="#151515" stroke-width="2" stroke-miterlimit="10" stroke-linecap="round" stroke-linejoin="round"/>
<path d="M14.0224 29.9409H52.3385" stroke="#151515" stroke-width="2" stroke-miterlimit="10" stroke-linecap="round" stroke-linejoin="round"/>
<mask id="mask0_204_183" style="mask-type:luminance" maskUnits="userSpaceOnUse" x="0" y="0" width="80" height="80">
<path d="M78.9998 79V1.00024H1V79H78.9998Z" fill="white" stroke="white" stroke-width="2"/>
</mask>
<g mask="url(#mask0_204_183)">
<path d="M47.3291 1.50149V9.71506C47.3291 12.3811 49.4903 14.5422 52.1563 14.5422H60.3698" stroke="#151515" stroke-width="2" stroke-miterlimit="10" stroke-linecap="round" stroke-linejoin="round"/>
<path d="M60.6994 36.1006V16.0571C60.6994 15.0872 60.3141 14.1571 59.6284 13.4713L48.4003 2.24322C47.7145 1.55744 46.7843 1.17216 45.8144 1.17212H10.4886C7.8228 1.17212 5.66156 3.33321 5.66156 5.9993V68.1779C5.66156 70.8438 7.8228 73.0049 10.4886 73.0049H22.7507" stroke="#151515" stroke-width="2" stroke-miterlimit="10" stroke-linecap="round" stroke-linejoin="round"/>
<path d="M29.3332 42.3275L26.9076 40.8905C26.5871 40.7006 26.2044 40.6458 25.8435 40.7382C25.4827 40.8305 25.1733 41.0624 24.9834 41.3828L15.0104 58.2167C14.8206 58.5371 14.7658 58.9199 14.8582 59.2808C14.9506 59.6416 15.1825 59.951 15.5029 60.1409L17.9287 61.5779C19.5557 62.5418 21.6561 62.0043 22.6201 60.3773L30.534 47.0189C31.4979 45.3917 30.9604 43.2914 29.3332 42.3275Z" stroke="#151515" stroke-width="2" stroke-miterlimit="10" stroke-linecap="round" stroke-linejoin="round"/>
<path d="M62.8233 54.1163L66.5324 60.3772C67.4964 62.0042 69.5969 62.5419 71.2239 61.5779L73.6497 60.1409C73.8084 60.0469 73.947 59.9226 74.0576 59.775C74.1682 59.6274 74.2487 59.4595 74.2944 59.2808C74.3401 59.1021 74.3502 58.9162 74.3241 58.7336C74.2979 58.551 74.2361 58.3754 74.142 58.2167L64.1691 41.3829C64.0751 41.2242 63.9508 41.0856 63.8032 40.9749C63.6556 40.8643 63.4877 40.7838 63.3091 40.7381C63.1304 40.6924 62.9445 40.6823 62.7619 40.7084C62.5793 40.7345 62.4037 40.7964 62.245 40.8904L59.8193 42.3275C58.1922 43.2914 57.6546 45.3917 58.6186 47.0189L60.0177 49.3805" stroke="#151515" stroke-width="2" stroke-miterlimit="10" stroke-linecap="round" stroke-linejoin="round"/>
<path d="M44.4546 47.8801L44.0544 47.6432C41.7535 46.3227 40.6774 46.0787 38.6015 46.881L36.339 47.7559C35.6594 48.0185 34.9291 48.1236 34.203 48.0633C33.4769 48.0029 32.774 47.7786 32.1471 47.4073L30.748 46.5823" stroke="#151515" stroke-width="2" stroke-miterlimit="10" stroke-linecap="round" stroke-linejoin="round"/>
<path d="M22.0803 61.0635L24.4248 62.4473" stroke="#151515" stroke-width="2" stroke-miterlimit="10" stroke-linecap="round" stroke-linejoin="round"/>
<path d="M41.7691 76.2173L45.5227 78.441C46.8391 79.221 48.5385 78.7859 49.3183 77.4696C50.0983 76.1532 49.6631 74.4538 48.3469 73.674L51.4625 75.5198C52.7791 76.2996 54.4784 75.8648 55.2583 74.5484C56.0381 73.2321 55.6031 71.5328 54.2867 70.7528L56.3639 71.9834C57.6803 72.7632 59.3797 72.3282 60.1595 71.012C60.9394 69.6956 60.5044 67.9962 59.188 67.2164L61.7301 68.7223C63.0464 69.502 64.7456 69.0671 65.5253 67.7509C66.3051 66.4346 65.8703 64.7356 64.554 63.9556" stroke="#151515" stroke-width="2" stroke-miterlimit="10" stroke-linecap="round" stroke-linejoin="round"/>
<path d="M58.7361 47.2176L58.4098 47.4073C57.783 47.7787 57.0801 48.003 56.354 48.0634C55.6279 48.1237 54.8976 48.0186 54.218 47.7559L51.6664 46.7534C50.8684 46.4399 49.9921 46.3845 49.161 46.595L45.2514 47.5843C43.4316 48.0448 42.1568 49.6824 42.1568 51.5598V56.7784C42.1568 57.5163 42.7547 58.1165 43.4925 58.117C45.7177 58.1184 47.5219 56.3151 47.5219 54.0902V53.8693L64.2558 63.7788C64.5663 63.4481 64.9219 63.1628 65.3122 62.9315L67.6831 61.5463" stroke="#151515" stroke-width="2" stroke-miterlimit="10" stroke-linecap="round" stroke-linejoin="round"/>
<path d="M27.0745 68.1913C26.1824 69.4338 24.452 69.7181 23.2095 68.826C21.967 67.934 21.6828 66.2034 22.5748 64.9609L24.1435 62.7757C25.0357 61.5332 26.766 61.2489 28.0087 62.141C29.2513 63.0331 29.5354 64.7635 28.6434 66.006" stroke="#151515" stroke-width="2" stroke-miterlimit="10" stroke-linecap="round" stroke-linejoin="round"/>
<path d="M34.8744 66.8249L31.5741 71.4218C30.6821 72.6644 28.9517 72.9485 27.7092 72.0564C26.4665 71.1644 26.1824 69.434 27.0745 68.1915L30.3746 63.5944C31.2668 62.3519 32.9971 62.0679 34.2398 62.9599C35.4824 63.8519 35.7665 65.5822 34.8744 66.8249Z" stroke="#151515" stroke-width="2" stroke-miterlimit="10" stroke-linecap="round" stroke-linejoin="round"/>
<path d="M34.8744 66.8248C35.7665 65.5822 37.4968 65.2981 38.7393 66.1901C39.9819 67.082 40.2662 68.8126 39.3741 70.0551L36.0738 74.6521C35.1818 75.8946 33.4515 76.1787 32.2087 75.2867C30.9662 74.3946 30.6821 72.6643 31.5741 71.4217" stroke="#151515" stroke-width="2" stroke-miterlimit="10" stroke-linecap="round" stroke-linejoin="round"/>
<path d="M37.9077 72.0978C38.7998 70.8553 40.5302 70.5711 41.7727 71.4631C43.0152 72.3552 43.2996 74.0856 42.4074 75.3281L41.3099 76.8569C40.4179 78.0994 38.6876 78.3836 37.4449 77.4916C36.2024 76.5995 35.9184 74.8689 36.8104 73.6264" stroke="#151515" stroke-width="2" stroke-miterlimit="10" stroke-linecap="round" stroke-linejoin="round"/>
</g>
</svg>
