<svg width="80" height="80" viewBox="0 0 80 80" fill="none" xmlns="http://www.w3.org/2000/svg">
<mask id="mask0_204_212" style="mask-type:luminance" maskUnits="userSpaceOnUse" x="0" y="0" width="80" height="80">
<path d="M78.9998 79V1.00024H1V79H78.9998Z" fill="white" stroke="white" stroke-width="2"/>
</mask>
<g mask="url(#mask0_204_212)">
<path d="M49.3099 68.624H39.8433C37.8583 68.624 35.8761 68.4801 33.9121 68.1932L31.8368 67.8903" stroke="#151515" stroke-width="2" stroke-miterlimit="10" stroke-linecap="round" stroke-linejoin="round"/>
<path d="M13.0857 63.809V74.6196C13.0857 75.7607 12.1606 76.686 11.0192 76.686H7.50935C6.36795 76.686 5.44279 75.7607 5.44279 74.6196V52.2039C5.44279 51.0627 6.36795 50.1374 7.50935 50.1374H11.0192C12.1606 50.1374 13.0857 51.0627 13.0857 52.2039V58.3289" stroke="#151515" stroke-width="2" stroke-miterlimit="10" stroke-linecap="round" stroke-linejoin="round"/>
<path d="M13.0857 73.1255L26.3916 78.0781C27.7242 78.5741 29.1346 78.8281 30.5565 78.8281H46.7263C48.9891 78.8282 51.2053 78.1851 53.1167 76.9739L73.3629 65.5514C74.6987 64.3655 74.9462 62.3721 73.9413 60.8952C72.8418 59.2793 71.0229 58.9985 69.0214 59.9449L49.3097 68.6239L49.3331 66.748C49.072 64.123 47.051 62.0163 44.4391 61.6468L32.4352 60.2646C29.6662 59.8729 28.2824 58.9449 25.8685 57.5329C22.5728 55.6049 18.8234 54.5888 15.0053 54.5888H13.0857" stroke="#151515" stroke-width="2" stroke-miterlimit="10" stroke-linecap="round" stroke-linejoin="round"/>
<path d="M43.0755 2.64464C43.6008 3.2972 44.3201 3.76578 45.1293 3.98259C45.9385 4.1994 46.7957 4.15322 47.5769 3.85073C49.9273 2.94057 52.517 4.43588 52.9041 6.92634C53.0327 7.75417 53.4213 8.51962 54.0137 9.11201C54.6061 9.70439 55.3715 10.093 56.1994 10.2216C58.6898 10.6087 60.1851 13.1984 59.275 15.5488C58.9725 16.33 58.9263 17.1872 59.1431 17.9964C59.3599 18.8056 59.8285 19.5249 60.4811 20.0502C62.4445 21.6307 62.4445 24.621 60.4811 26.2014C59.8285 26.7268 59.3599 27.446 59.1431 28.2552C58.9263 29.0644 58.9725 29.9216 59.275 30.7028C60.1851 33.0531 58.6898 35.643 56.1994 36.03C55.3715 36.1586 54.606 36.5472 54.0136 37.1396C53.4213 37.732 53.0327 38.4975 52.9041 39.3253C52.517 41.8158 49.9273 43.3111 47.5769 42.4008C46.7956 42.0983 45.9385 42.0521 45.1293 42.269C44.3201 42.4858 43.6008 42.9544 43.0755 43.607C41.495 45.5704 38.5047 45.5704 36.9243 43.607C36.399 42.9544 35.6797 42.4858 34.8705 42.269C34.0613 42.0521 33.2041 42.0983 32.4229 42.4008C30.0724 43.3111 27.4827 41.8158 27.0957 39.3253C26.9671 38.4975 26.5785 37.732 25.9861 37.1396C25.3937 36.5472 24.6282 36.1586 23.8004 36.03C21.3099 35.643 19.8146 33.0531 20.7248 30.7028C21.0273 29.9216 21.0735 29.0644 20.8567 28.2552C20.6399 27.446 20.1713 26.7268 19.5187 26.2014C17.5553 24.621 17.5553 21.6307 19.5187 20.0502C20.1713 19.5249 20.6399 18.8056 20.8567 17.9964C21.0735 17.1872 21.0273 16.33 20.7248 15.5488C19.8146 13.1984 21.3099 10.6087 23.8004 10.2216C24.6282 10.093 25.3937 9.70439 25.9861 9.11201C26.5784 8.51962 26.9671 7.75417 27.0957 6.92634C27.4827 4.43588 30.0724 2.94057 32.4229 3.85073C33.2041 4.15322 34.0613 4.1994 34.8705 3.98259C35.6797 3.76578 36.3989 3.2972 36.9243 2.64464C38.5047 0.681205 41.495 0.681205 43.0755 2.64464Z" stroke="#151515" stroke-width="2" stroke-miterlimit="10" stroke-linecap="round" stroke-linejoin="round"/>
<path d="M25.4465 20.3845C26.7321 13.5169 32.759 8.31927 39.9999 8.31927C48.1773 8.31927 54.8064 14.9485 54.8064 23.1259C54.8064 31.3034 48.1773 37.9326 39.9999 37.9326C32.7582 37.9326 26.7309 32.7339 25.4462 25.865" stroke="#151515" stroke-width="2" stroke-miterlimit="10" stroke-linecap="round" stroke-linejoin="round"/>
<path d="M40.2879 27.8409L44.9986 30.9548C45.4014 31.2208 45.9188 30.8451 45.79 30.3798L44.2844 24.9373C44.257 24.8386 44.2593 24.734 44.291 24.6366C44.3226 24.5392 44.3822 24.4532 44.4624 24.3895L48.8794 20.8715C49.257 20.5707 49.0594 19.9624 48.5772 19.941L42.9358 19.6913C42.8335 19.6868 42.7348 19.6523 42.6519 19.5921C42.569 19.5319 42.5057 19.4487 42.4697 19.3528L40.4889 14.0646C40.3196 13.6126 39.68 13.6126 39.5107 14.0646L37.5299 19.3528C37.494 19.4486 37.4306 19.5319 37.3478 19.5921C37.265 19.6522 37.1663 19.6868 37.064 19.6913L31.4226 19.941C30.9402 19.9624 30.7427 20.5707 31.1202 20.8715L35.5374 24.3895C35.6175 24.4533 35.677 24.5392 35.7087 24.6366C35.7403 24.734 35.7427 24.8386 35.7154 24.9373L34.2097 30.3798C34.081 30.8451 34.5983 31.2208 35.0012 30.9548L39.7118 27.8409C39.7972 27.7844 39.8974 27.7544 39.9998 27.7544C40.1022 27.7544 40.2024 27.7844 40.2879 27.8409Z" stroke="#151515" stroke-width="2" stroke-miterlimit="10" stroke-linecap="round" stroke-linejoin="round"/>
<path d="M26.8249 38.3825L21.0568 49.5672C20.8032 50.0589 21.2428 50.6216 21.781 50.4948L28.2026 48.9822C28.3529 48.9468 28.5108 48.9662 28.6481 49.037C28.7853 49.1077 28.8927 49.2252 28.951 49.3681L31.4419 55.477C31.6508 55.9894 32.3641 56.0211 32.6177 55.5294L38.2241 44.6585" stroke="#151515" stroke-width="2" stroke-miterlimit="10" stroke-linecap="round" stroke-linejoin="round"/>
<path d="M41.7757 44.6586L47.3821 55.5294C47.6355 56.0211 48.3488 55.9894 48.5577 55.477L51.0486 49.3681C51.1069 49.2252 51.2144 49.1078 51.3516 49.037C51.4888 48.9663 51.6468 48.9468 51.797 48.9822L58.2186 50.4948C58.757 50.6216 59.1964 50.0589 58.943 49.5672L53.1749 38.3825" stroke="#151515" stroke-width="2" stroke-miterlimit="10" stroke-linecap="round" stroke-linejoin="round"/>
</g>
</svg>
